ffmpeg started on 2025-06-05 at 19:46:12
Report written to "D:\Convert\FFMetrics\reports\ssim_report-6.txt"
Log level: 32
Command line:
ffmpeg -hide_banner -nostdin -i "G:\\\xc0\xed\xe8\xec\xe5\\\xce\xed\xe3\xee\xe8\xed\xe3\xe8\\!_36_\xce\xf1\xe5\xed\xfc_2024\\DreamCast\\\xcd\xe0\xef\xe0\xe4\xe5\xed\xe8\xe5 \xee\xe4\xe8\xed\xee\xf7\xea\xe8 \xed\xe0 \xe8\xed\xee\xe9 \xec\xe8\xf0\\[DC] Hitoribocchi no Isekai Kouryaku - 07_Telegram_HEVC.mkv" -i "G:\\\xc0\xed\xe8\xec\xe5\\\xce\xed\xe3\xee\xe8\xed\xe3\xe8\\!_36_\xce\xf1\xe5\xed\xfc_2024\\DreamCast\\\xcd\xe0\xef\xe0\xe4\xe5\xed\xe8\xe5 \xee\xe4\xe8\xed\xee\xf7\xea\xe8 \xed\xe0 \xe8\xed\xee\xe9 \xec\xe8\xf0\\[DC] Hitoribocchi no Isekai Kouryaku - 07_Telegram.mp4" -lavfi "[0:v]settb=AVTB,setpts=PTS-STARTPTS,format=pix_fmts=yuv420p10,fps=24000/1001,scale=1920:1080:flags=bicubic[main];[1:v]settb=AVTB,setpts=PTS-STARTPTS,format=pix_fmts=yuv420p,fps=24000/1001,scale=1920:1080:flags=bicubic[ref];[main][ref]ssim=eof_action=endall:stats_file='D\\:/Convert/FFMetrics/logs/ssim_logfile-6.txt'" -f null -
Input #0, matroska,webm, from 'G:\Аниме\Онгоинги\!_36_Осень_2024\DreamCast\Нападение одиночки на иной мир\[DC] Hitoribocchi no Isekai Kouryaku - 07_Telegram_HEVC.mkv':
  Metadata:
    COMPATIBLE_BRANDS: isomiso2avc1mp41
    MAJOR_BRAND     : isom
    MINOR_VERSION   : 512
    ENCODER         : Lavf61.7.100
  Duration: 00:23:49.08, start: -0.021000, bitrate: 1060 kb/s
  Stream #0:0: Video: hevc (Main 10), yuv420p10le(tv, bt709, progressive), 1920x1080 [SAR 1:1 DAR 16:9], 23.98 fps, 23.98 tbr, 1k tbn (default)
      Metadata:
        HANDLER_NAME    : VideoHandler
        VENDOR_ID       : [0][0][0][0]
        ENCODER         : Lavc61.19.100 libx265
        BPS             : 861329
        DURATION        : 00:23:48.969708333
        NUMBER_OF_FRAMES: 34261
        NUMBER_OF_BYTES : 153851581
        _STATISTICS_WRITING_APP: mkvpropedit v66.0.0 ('Josie') 64-bit
        _STATISTICS_WRITING_DATE_UTC: 2025-05-31 10:46:35
        _STATISTICS_TAGS: BPS DURATION NUMBER_OF_FRAMES NUMBER_OF_BYTES
  Stream #0:1: Audio: aac (LC), 48000 Hz, stereo, fltp (default)
      Metadata:
        HANDLER_NAME    : SoundHandler
        VENDOR_ID       : [0][0][0][0]
        ENCODER         : Lavc61.19.100 aac
        BPS             : 195068
        DURATION        : 00:23:49.077000000
        NUMBER_OF_FRAMES: 66989
        NUMBER_OF_BYTES : 34846040
        _STATISTICS_WRITING_APP: mkvpropedit v66.0.0 ('Josie') 64-bit
        _STATISTICS_WRITING_DATE_UTC: 2025-05-31 10:46:35
        _STATISTICS_TAGS: BPS DURATION NUMBER_OF_FRAMES NUMBER_OF_BYTES
Input #1, mov,mp4,m4a,3gp,3g2,mj2, from 'G:\Аниме\Онгоинги\!_36_Осень_2024\DreamCast\Нападение одиночки на иной мир\[DC] Hitoribocchi no Isekai Kouryaku - 07_Telegram.mp4':
  Metadata:
    major_brand     : isom
    minor_version   : 512
    compatible_brands: isomiso2avc1mp41
    encoder         : Lavf61.1.100
  Duration: 00:23:49.03, start: 0.000000, bitrate: 3538 kb/s
  Stream #1:0[0x1](und): Video: h264 (High) (avc1 / 0x31637661), yuv420p(tv, bt709, progressive), 1920x1080 [SAR 1:1 DAR 16:9], 3390 kb/s, 23.98 fps, 23.98 tbr, 24k tbn (default)
      Metadata:
        handler_name    : VideoHandler
        vendor_id       : [0][0][0][0]
        encoder         : Lavc61.3.100 h264_qsv
  Stream #1:1[0x2](und): Audio: aac (HE-AACv2) (mp4a / 0x6134706D), 48000 Hz, stereo, fltp, 144 kb/s (default)
      Metadata:
        handler_name    : SoundHandler
        vendor_id       : [0][0][0][0]
Stream mapping:
  Stream #0:0 (hevc) -> settb:default
  Stream #1:0 (h264) -> settb:default
  ssim:default -> Stream #0:0 (wrapped_avframe)
  Stream #0:1 -> #0:1 (aac (native) -> pcm_s16le (native))
Output #0, null, to 'pipe:':
  Metadata:
    COMPATIBLE_BRANDS: isomiso2avc1mp41
    MAJOR_BRAND     : isom
    MINOR_VERSION   : 512
    encoder         : Lavf61.7.100
  Stream #0:0: Video: wrapped_avframe, yuv420p10le(tv, bt709, progressive), 1920x1080 [SAR 1:1 DAR 16:9], q=2-31, 200 kb/s, 23.98 fps, 23.98 tbn
      Metadata:
        encoder         : Lavc61.19.100 wrapped_avframe
  Stream #0:1: Audio: pcm_s16le, 48000 Hz, stereo, s16, 1536 kb/s (default)
      Metadata:
        HANDLER_NAME    : SoundHandler
        VENDOR_ID       : [0][0][0][0]
        _STATISTICS_TAGS: BPS DURATION NUMBER_OF_FRAMES NUMBER_OF_BYTES
        BPS             : 195068
        DURATION        : 00:23:49.077000000
        NUMBER_OF_FRAMES: 66989
        NUMBER_OF_BYTES : 34846040
        _STATISTICS_WRITING_APP: mkvpropedit v66.0.0 ('Josie') 64-bit
        _STATISTICS_WRITING_DATE_UTC: 2025-05-31 10:46:35
        encoder         : Lavc61.19.100 pcm_s16le
frame=  156 fps=0.0 q=-0.0 size=N/A time=00:00:06.50 bitrate=N/A speed=12.8x    frame=  411 fps=400 q=-0.0 size=N/A time=00:00:17.14 bitrate=N/A speed=16.7x    frame=  635 fps=414 q=-0.0 size=N/A time=00:00:26.48 bitrate=N/A speed=17.3x    frame=  883 fps=429 q=-0.0 size=N/A time=00:00:36.82 bitrate=N/A speed=17.9x    frame= 1094 fps=426 q=-0.0 size=N/A time=00:00:45.62 bitrate=N/A speed=17.8x    frame= 1347 fps=435 q=-0.0 size=N/A time=00:00:56.18 bitrate=N/A speed=18.2x    frame= 1592 fps=442 q=-0.0 size=N/A time=00:01:06.39 bitrate=N/A speed=18.4x    frame= 1802 fps=438 q=-0.0 size=N/A time=00:01:15.15 bitrate=N/A speed=18.3x    frame= 2002 fps=432 q=-0.0 size=N/A time=00:01:23.50 bitrate=N/A speed=  18x    frame= 2188 fps=425 q=-0.0 size=N/A time=00:01:31.25 bitrate=N/A speed=17.7x    frame= 2360 fps=417 q=-0.0 size=N/A time=00:01:38.43 bitrate=N/A speed=17.4x    frame= 2524 fps=408 q=-0.0 size=N/A time=00:01:45.27 bitrate=N/A speed=  17x    frame= 2703 fps=404 q=-0.0 size=N/A time=00:01:52.73 bitrate=N/A speed=16.8x    frame= 2888 fps=400 q=-0.0 size=N/A time=00:02:00.45 bitrate=N/A speed=16.7x    frame= 3026 fps=392 q=-0.0 size=N/A time=00:02:06.20 bitrate=N/A speed=16.3x    frame= 3162 fps=383 q=-0.0 size=N/A time=00:02:11.88 bitrate=N/A speed=  16x    frame= 3314 fps=378 q=-0.0 size=N/A time=00:02:18.22 bitrate=N/A speed=15.8x    frame= 3509 fps=378 q=-0.0 size=N/A time=00:02:26.35 bitrate=N/A speed=15.8x    frame= 3690 fps=376 q=-0.0 size=N/A time=00:02:33.90 bitrate=N/A speed=15.7x    frame= 3918 fps=380 q=-0.0 size=N/A time=00:02:43.41 bitrate=N/A speed=15.8x    frame= 4154 fps=383 q=-0.0 size=N/A time=00:02:53.25 bitrate=N/A speed=  16x    frame= 4403 fps=388 q=-0.0 size=N/A time=00:03:03.64 bitrate=N/A speed=16.2x    frame= 4659 fps=393 q=-0.0 size=N/A time=00:03:14.31 bitrate=N/A speed=16.4x    frame= 4884 fps=394 q=-0.0 size=N/A time=00:03:23.70 bitrate=N/A speed=16.4x    frame= 5111 fps=396 q=-0.0 size=N/A time=00:03:33.17 bitrate=N/A speed=16.5x    frame= 5388 fps=401 q=-0.0 size=N/A time=00:03:44.72 bitrate=N/A speed=16.7x    frame= 5658 fps=406 q=-0.0 size=N/A time=00:03:55.98 bitrate=N/A speed=16.9x    frame= 5913 fps=409 q=-0.0 size=N/A time=00:04:06.62 bitrate=N/A speed=17.1x    frame= 6192 fps=414 q=-0.0 size=N/A time=00:04:18.25 bitrate=N/A speed=17.3x    frame= 6439 fps=416 q=-0.0 size=N/A time=00:04:28.55 bitrate=N/A speed=17.4x    frame= 6654 fps=416 q=-0.0 size=N/A time=00:04:37.52 bitrate=N/A speed=17.4x    frame= 6898 fps=418 q=-0.0 size=N/A time=00:04:47.70 bitrate=N/A speed=17.4x    frame= 7133 fps=419 q=-0.0 size=N/A time=00:04:57.50 bitrate=N/A speed=17.5x    frame= 7384 fps=421 q=-0.0 size=N/A time=00:05:07.97 bitrate=N/A speed=17.6x    frame= 7650 fps=423 q=-0.0 size=N/A time=00:05:19.06 bitrate=N/A speed=17.7x    frame= 7861 fps=423 q=-0.0 size=N/A time=00:05:27.86 bitrate=N/A speed=17.7x    frame= 8117 fps=425 q=-0.0 size=N/A time=00:05:38.54 bitrate=N/A speed=17.7x    frame= 8367 fps=427 q=-0.0 size=N/A time=00:05:48.97 bitrate=N/A speed=17.8x    frame= 8585 fps=427 q=-0.0 size=N/A time=00:05:58.06 bitrate=N/A speed=17.8x    frame= 8781 fps=426 q=-0.0 size=N/A time=00:06:06.24 bitrate=N/A speed=17.8x    frame= 8996 fps=425 q=-0.0 size=N/A time=00:06:15.20 bitrate=N/A speed=17.7x    frame= 9237 fps=426 q=-0.0 size=N/A time=00:06:25.25 bitrate=N/A speed=17.8x    frame= 9487 fps=428 q=-0.0 size=N/A time=00:06:35.68 bitrate=N/A speed=17.8x    frame= 9733 fps=429 q=-0.0 size=N/A time=00:06:45.94 bitrate=N/A speed=17.9x    frame= 9999 fps=431 q=-0.0 size=N/A time=00:06:57.04 bitrate=N/A speed=  18x    frame=10266 fps=433 q=-0.0 size=N/A time=00:07:08.17 bitrate=N/A speed=  18x    frame=10530 fps=434 q=-0.0 size=N/A time=00:07:19.18 bitrate=N/A speed=18.1x    frame=10776 fps=435 q=-0.0 size=N/A time=00:07:29.44 bitrate=N/A speed=18.2x    frame=11031 fps=436 q=-0.0 size=N/A time=00:07:40.08 bitrate=N/A speed=18.2x    frame=11273 fps=437 q=-0.0 size=N/A time=00:07:50.17 bitrate=N/A speed=18.2x    frame=11503 fps=437 q=-0.0 size=N/A time=00:07:59.77 bitrate=N/A speed=18.2x    frame=11718 fps=437 q=-0.0 size=N/A time=00:08:08.73 bitrate=N/A speed=18.2x    frame=11977 fps=438 q=-0.0 size=N/A time=00:08:19.54 bitrate=N/A speed=18.3x    frame=12230 fps=439 q=-0.0 size=N/A time=00:08:30.09 bitrate=N/A speed=18.3x    frame=12460 fps=439 q=-0.0 size=N/A time=00:08:39.68 bitrate=N/A speed=18.3x    frame=12704 fps=440 q=-0.0 size=N/A time=00:08:49.86 bitrate=N/A speed=18.3x    frame=12952 fps=441 q=-0.0 size=N/A time=00:09:00.20 bitrate=N/A speed=18.4x    frame=13194 fps=441 q=-0.0 size=N/A time=00:09:10.29 bitrate=N/A speed=18.4x    frame=13450 fps=442 q=-0.0 size=N/A time=00:09:20.97 bitrate=N/A speed=18.4x    frame=13689 fps=442 q=-0.0 size=N/A time=00:09:30.94 bitrate=N/A speed=18.4x    frame=13940 fps=443 q=-0.0 size=N/A time=00:09:41.41 bitrate=N/A speed=18.5x    frame=14152 fps=442 q=-0.0 size=N/A time=00:09:50.25 bitrate=N/A speed=18.5x    frame=14400 fps=443 q=-0.0 size=N/A time=00:10:00.60 bitrate=N/A speed=18.5x    frame=14657 fps=444 q=-0.0 size=N/A time=00:10:11.31 bitrate=N/A speed=18.5x    frame=14918 fps=445 q=-0.0 size=N/A time=00:10:22.20 bitrate=N/A speed=18.6x    frame=15131 fps=444 q=-0.0 size=N/A time=00:10:31.08 bitrate=N/A speed=18.5x    frame=15347 fps=444 q=-0.0 size=N/A time=00:10:40.09 bitrate=N/A speed=18.5x    frame=15580 fps=444 q=-0.0 size=N/A time=00:10:49.81 bitrate=N/A speed=18.5x    frame=15813 fps=444 q=-0.0 size=N/A time=00:10:59.53 bitrate=N/A speed=18.5x    frame=16039 fps=444 q=-0.0 size=N/A time=00:11:08.95 bitrate=N/A speed=18.5x    frame=16269 fps=444 q=-0.0 size=N/A time=00:11:18.55 bitrate=N/A speed=18.5x    frame=16532 fps=445 q=-0.0 size=N/A time=00:11:29.52 bitrate=N/A speed=18.6x    frame=16788 fps=446 q=-0.0 size=N/A time=00:11:40.19 bitrate=N/A speed=18.6x    frame=17030 fps=446 q=-0.0 size=N/A time=00:11:50.29 bitrate=N/A speed=18.6x    frame=17277 fps=447 q=-0.0 size=N/A time=00:12:00.59 bitrate=N/A speed=18.6x    frame=17545 fps=447 q=-0.0 size=N/A time=00:12:11.77 bitrate=N/A speed=18.7x    frame=17786 fps=448 q=-0.0 size=N/A time=00:12:21.82 bitrate=N/A speed=18.7x    frame=18030 fps=448 q=-0.0 size=N/A time=00:12:32.00 bitrate=N/A speed=18.7x    frame=18265 fps=448 q=-0.0 size=N/A time=00:12:41.80 bitrate=N/A speed=18.7x    frame=18501 fps=448 q=-0.0 size=N/A time=00:12:51.64 bitrate=N/A speed=18.7x    frame=18738 fps=448 q=-0.0 size=N/A time=00:13:01.53 bitrate=N/A speed=18.7x    frame=19001 fps=449 q=-0.0 size=N/A time=00:13:12.50 bitrate=N/A speed=18.7x    frame=19254 fps=449 q=-0.0 size=N/A time=00:13:23.05 bitrate=N/A speed=18.7x    frame=19535 fps=451 q=-0.0 size=N/A time=00:13:34.77 bitrate=N/A speed=18.8x    frame=19800 fps=451 q=-0.0 size=N/A time=00:13:45.82 bitrate=N/A speed=18.8x    frame=20053 fps=452 q=-0.0 size=N/A time=00:13:56.37 bitrate=N/A speed=18.8x    frame=20301 fps=452 q=-0.0 size=N/A time=00:14:06.72 bitrate=N/A speed=18.9x    frame=20550 fps=452 q=-0.0 size=N/A time=00:14:17.10 bitrate=N/A speed=18.9x    frame=20791 fps=453 q=-0.0 size=N/A time=00:14:27.15 bitrate=N/A speed=18.9x    frame=21031 fps=453 q=-0.0 size=N/A time=00:14:37.16 bitrate=N/A speed=18.9x    frame=21314 fps=454 q=-0.0 size=N/A time=00:14:48.97 bitrate=N/A speed=18.9x    frame=21573 fps=454 q=-0.0 size=N/A time=00:14:59.77 bitrate=N/A speed=  19x    frame=21822 fps=455 q=-0.0 size=N/A time=00:15:10.15 bitrate=N/A speed=  19x    frame=22074 fps=455 q=-0.0 size=N/A time=00:15:20.66 bitrate=N/A speed=  19x    frame=22294 fps=455 q=-0.0 size=N/A time=00:15:29.84 bitrate=N/A speed=  19x    frame=22532 fps=455 q=-0.0 size=N/A time=00:15:39.77 bitrate=N/A speed=  19x    frame=22803 fps=455 q=-0.0 size=N/A time=00:15:51.07 bitrate=N/A speed=  19x    frame=23021 fps=455 q=-0.0 size=N/A time=00:16:00.16 bitrate=N/A speed=  19x    frame=23257 fps=455 q=-0.0 size=N/A time=00:16:10.01 bitrate=N/A speed=  19x    frame=23513 fps=456 q=-0.0 size=N/A time=00:16:20.68 bitrate=N/A speed=  19x    frame=23744 fps=456 q=-0.0 size=N/A time=00:16:30.32 bitrate=N/A speed=  19x    frame=23984 fps=456 q=-0.0 size=N/A time=00:16:40.33 bitrate=N/A speed=  19x    frame=24239 fps=456 q=-0.0 size=N/A time=00:16:50.96 bitrate=N/A speed=  19x    frame=24482 fps=456 q=-0.0 size=N/A time=00:17:01.10 bitrate=N/A speed=  19x    frame=24723 fps=456 q=-0.0 size=N/A time=00:17:11.15 bitrate=N/A speed=  19x    frame=24946 fps=456 q=-0.0 size=N/A time=00:17:20.45 bitrate=N/A speed=  19x    frame=25165 fps=456 q=-0.0 size=N/A time=00:17:29.59 bitrate=N/A speed=  19x    frame=25375 fps=455 q=-0.0 size=N/A time=00:17:38.34 bitrate=N/A speed=  19x    frame=25625 fps=456 q=-0.0 size=N/A time=00:17:48.77 bitrate=N/A speed=  19x    frame=25882 fps=456 q=-0.0 size=N/A time=00:17:59.49 bitrate=N/A speed=  19x    frame=26132 fps=456 q=-0.0 size=N/A time=00:18:09.92 bitrate=N/A speed=  19x    frame=26381 fps=456 q=-0.0 size=N/A time=00:18:20.30 bitrate=N/A speed=  19x    frame=26611 fps=456 q=-0.0 size=N/A time=00:18:29.90 bitrate=N/A speed=  19x    frame=26854 fps=456 q=-0.0 size=N/A time=00:18:40.03 bitrate=N/A speed=  19x    frame=27110 fps=457 q=-0.0 size=N/A time=00:18:50.71 bitrate=N/A speed=  19x    frame=27359 fps=457 q=-0.0 size=N/A time=00:19:01.09 bitrate=N/A speed=19.1x    frame=27630 fps=458 q=-0.0 size=N/A time=00:19:12.40 bitrate=N/A speed=19.1x    frame=27894 fps=458 q=-0.0 size=N/A time=00:19:23.41 bitrate=N/A speed=19.1x    frame=28116 fps=458 q=-0.0 size=N/A time=00:19:32.67 bitrate=N/A speed=19.1x    frame=28328 fps=457 q=-0.0 size=N/A time=00:19:41.51 bitrate=N/A speed=19.1x    frame=28560 fps=457 q=-0.0 size=N/A time=00:19:51.19 bitrate=N/A speed=19.1x    frame=28815 fps=458 q=-0.0 size=N/A time=00:20:01.82 bitrate=N/A speed=19.1x    frame=29058 fps=458 q=-0.0 size=N/A time=00:20:11.96 bitrate=N/A speed=19.1x    frame=29314 fps=458 q=-0.0 size=N/A time=00:20:22.63 bitrate=N/A speed=19.1x    frame=29555 fps=458 q=-0.0 size=N/A time=00:20:32.68 bitrate=N/A speed=19.1x    frame=29808 fps=458 q=-0.0 size=N/A time=00:20:43.24 bitrate=N/A speed=19.1x    frame=30043 fps=458 q=-0.0 size=N/A time=00:20:53.04 bitrate=N/A speed=19.1x    frame=30281 fps=458 q=-0.0 size=N/A time=00:21:02.97 bitrate=N/A speed=19.1x    frame=30534 fps=459 q=-0.0 size=N/A time=00:21:13.52 bitrate=N/A speed=19.1x    frame=30800 fps=459 q=-0.0 size=N/A time=00:21:24.61 bitrate=N/A speed=19.1x    frame=31054 fps=459 q=-0.0 size=N/A time=00:21:35.21 bitrate=N/A speed=19.2x    frame=31310 fps=460 q=-0.0 size=N/A time=00:21:45.88 bitrate=N/A speed=19.2x    frame=31531 fps=459 q=-0.0 size=N/A time=00:21:55.10 bitrate=N/A speed=19.2x    frame=31784 fps=459 q=-0.0 size=N/A time=00:22:05.65 bitrate=N/A speed=19.2x    frame=32030 fps=460 q=-0.0 size=N/A time=00:22:15.91 bitrate=N/A speed=19.2x    frame=32235 fps=459 q=-0.0 size=N/A time=00:22:24.46 bitrate=N/A speed=19.1x    frame=32465 fps=459 q=-0.0 size=N/A time=00:22:34.06 bitrate=N/A speed=19.1x    frame=32679 fps=459 q=-0.0 size=N/A time=00:22:42.98 bitrate=N/A speed=19.1x    frame=32892 fps=458 q=-0.0 size=N/A time=00:22:51.87 bitrate=N/A speed=19.1x    frame=33084 fps=458 q=-0.0 size=N/A time=00:22:59.87 bitrate=N/A speed=19.1x    frame=33247 fps=457 q=-0.0 size=N/A time=00:23:06.67 bitrate=N/A speed=  19x    frame=33434 fps=456 q=-0.0 size=N/A time=00:23:14.47 bitrate=N/A speed=  19x    frame=33681 fps=456 q=-0.0 size=N/A time=00:23:24.77 bitrate=N/A speed=  19x    frame=33939 fps=456 q=-0.0 size=N/A time=00:23:35.53 bitrate=N/A speed=  19x    frame=34173 fps=456 q=-0.0 size=N/A time=00:23:45.29 bitrate=N/A speed=  19x    [Parsed_ssim_10 @ 00000298513ca480] SSIM Y:0.994517 (22.609455) U:0.994449 (22.556503) V:0.994987 (22.999236) All:0.994584 (22.663038)
[out#0/null @ 0000029851334ac0] video:14722KiB audio:267956KiB subtitle:0KiB other streams:0KiB global headers:0KiB muxing overhead: unknown
frame=34261 fps=457 q=-0.0 Lsize=N/A time=00:23:48.96 bitrate=N/A speed=  19x    
